<?xml version="1.0" encoding="utf-8"?>
<!-- Generator: Adobe Illustrator 23.0.4, SVG Export Plug-In . SVG Version: 6.00 Build 0)  -->
<svg version="1.1" id="Layer_1" xmlns="http://www.w3.org/2000/svg" xmlns:xlink="http://www.w3.org/1999/xlink" x="0px" y="0px"
	 viewBox="0 0 313.68 333" style="enable-background:new 0 0 313.68 333;" xml:space="preserve">
<style type="text/css">
	.st0{enable-background:new    ;}
	.st1{fill:none;stroke:#000000;stroke-width:5;stroke-miterlimit:5;}
</style>
<g class="st0">
	<path class="st1" d="M12.646,52.489c0-0.225,0.112-0.454,0.342-0.684L34.863,29.93h1.025c0.908,0,1.479,0.571,1.709,1.709
		c0.224,1.143,0.342,2.051,0.342,2.734v1.367L14.355,59.325c-1.143-1.367-1.709-3.076-1.709-5.127V52.489z M17.431,66.844
		L40.674,43.26c0.908,0.913,1.42,1.768,1.538,2.563c0.112,0.801,0.171,1.768,0.171,2.905v1.709L20.166,72.313h-0.342h-1.025
		c0-0.225-0.229-0.854-0.684-1.88c-0.459-1.025-0.684-1.763-0.684-2.222v-1.025V66.844z M23.242,81.2l23.584-23.242
		c0.684,0.913,1.079,1.768,1.196,2.563c0.112,0.801,0.171,1.768,0.171,2.905v1.709L26.318,87.352h-1.025
		c-1.143,0-1.768-0.566-1.88-1.709c-0.118-1.138-0.171-2.163-0.171-3.076V81.2z M28.711,94.188l23.926-22.9
		c0.454,0.229,0.967,1.084,1.538,2.563c0.566,1.484,1.079,2.451,1.538,2.905c0,0.459-0.229,1.025-0.684,1.709
		c-0.459,0.684-0.913,1.143-1.367,1.367L34.863,98.631c0,0.459-0.4,0.801-1.196,1.025c-0.801,0.229-1.426,0.459-1.88,0.684h-0.684
		h-0.342c-0.459-0.225-0.801-0.854-1.025-1.88c-0.229-1.025-0.571-1.763-1.025-2.222v-1.025V94.188z M58.105,85.643h1.025h0.684
		c0,0.229,0.171,0.913,0.513,2.051c0.342,1.143,0.625,1.938,0.854,2.393v0.684v1.025l-23.242,23.242l-3.076-5.811L58.105,85.643z
		 M39.306,16.942c0-1.367,0.053-2.563,0.171-3.589c0.112-1.025,1.079-1.762,2.905-2.222c14.355-2.051,28.935-3.076,43.75-3.076
		h13.33c1.591,1.367,2.734,2.51,3.418,3.418c0.684,0.913,1.367,2.28,2.051,4.102c0.684,1.367,2.051,4.614,4.102,9.741
		s4.214,10.654,6.494,16.577c2.275,5.928,4.385,11.45,6.323,16.577c1.933,5.127,3.129,8.374,3.589,9.741
		c0.224,0.459,0.737,1.484,1.538,3.076c0.796,1.597,1.591,3.247,2.393,4.956c0.796,1.709,1.538,3.364,2.222,4.956
		c0.684,1.597,1.138,2.622,1.367,3.076c0,0.229,0.224,0.913,0.684,2.051c0.454,1.143,0.684,1.938,0.684,2.393
		c1.367,4.102,2.788,8.032,4.272,11.792c1.479,3.76,3.018,7.578,4.614,11.45c0.454,1.367,1.762,4.614,3.931,9.741
		c2.163,5.127,4.497,10.654,7.007,16.577c2.505,5.928,4.839,11.509,7.007,16.748c2.163,5.244,3.589,8.545,4.272,9.912
		c1.821,4.561,3.53,9.629,5.127,15.21c1.592,5.586,3.643,10.654,6.152,15.209c0.454-0.454,1.025-1.42,1.709-2.905
		c0.684-1.479,1.138-2.446,1.367-2.905c3.188-8.887,6.094-17.944,8.716-27.173c2.617-9.229,5.522-18.169,8.716-26.831
		c7.061-19.365,14.067-38.335,21.021-56.909c6.948-18.569,13.042-37.651,18.286-57.251c1.367-2.275,3.301-3.984,5.811-5.127
		c2.505-1.138,5.01-1.933,7.52-2.393c1.592,0,4.556-0.112,8.887-0.342c4.326-0.224,8.94-0.513,13.843-0.854
		c4.897-0.342,9.453-0.625,13.672-0.854c4.214-0.224,7.231-0.454,9.058-0.684h1.709c2.275,0,3.589,0.801,3.931,2.393
		c0.342,1.597,0.513,3.194,0.513,4.785v4.443c-0.459,1.143-1.084,3.247-1.88,6.323c-0.801,3.076-1.655,6.323-2.563,9.741
		c-0.913,3.418-1.826,6.665-2.734,9.741c-0.913,3.076-1.597,5.186-2.051,6.323c-0.684,2.28-1.709,5.527-3.076,9.741
		c-1.367,4.219-2.734,8.491-4.102,12.817c-1.367,4.331-2.622,8.32-3.76,11.963c-1.143,3.647-1.826,5.928-2.051,6.836
		c-0.459,0.913-1.313,3.022-2.563,6.323c-1.255,3.306-2.793,7.124-4.614,11.45c-1.826,4.331-3.76,9.004-5.811,14.014
		c-2.051,5.015-3.989,9.741-5.811,14.185c-1.826,4.443-3.418,8.32-4.785,11.621c-1.367,3.306-2.28,5.527-2.734,6.665
		c0,0.229-0.229,0.913-0.684,2.051c-0.459,1.143-0.684,1.938-0.684,2.393c0,0.229-0.229,1.367-0.684,3.418
		c-0.459,2.051-0.801,3.306-1.025,3.76l-1.367,1.367c-1.367,2.051-2.339,4.561-2.905,7.52c-0.571,2.964-1.084,5.244-1.538,6.836
		c0,0.459-0.229,1.426-0.684,2.905c-0.459,1.484-0.913,3.022-1.367,4.614c-0.459,1.597-0.913,3.135-1.367,4.614
		c-0.459,1.484-0.801,2.451-1.025,2.905c0,0.459-0.171,1.88-0.513,4.272s-0.513,3.818-0.513,4.272
		c-0.684,3.193-1.826,6.152-3.418,8.887c-1.597,2.734-2.964,5.698-4.102,8.887c-0.459,1.143-1.143,3.076-2.051,5.811
		c-0.913,2.734-1.826,5.586-2.734,8.545c-0.913,2.964-1.768,5.698-2.563,8.203c-0.801,2.51-1.313,4.102-1.538,4.785
		c0,0.684-0.229,1.88-0.684,3.589c-0.459,1.709-0.913,3.477-1.367,5.298c-0.459,1.826-0.913,3.647-1.367,5.469
		c-0.459,1.826-0.801,3.076-1.025,3.76c0,0.459-0.171,1.88-0.513,4.272s-0.513,3.818-0.513,4.272
		c-0.459,1.367-1.025,3.418-1.709,6.152s-2.168,4.102-4.443,4.102h-63.232c-0.459,0-0.913-0.684-1.367-2.051
		c-0.459-0.684-0.801-1.479-1.025-2.393c-9.346-20.508-17.432-41.357-24.268-62.549s-13.901-42.382-21.191-63.574
		c-4.561-12.075-9.458-24.038-14.697-35.889c-5.245-11.846-10.542-23.638-15.894-35.376c-5.356-11.733-10.596-23.525-15.723-35.376
		c-5.127-11.846-9.741-23.926-13.843-36.23V16.942z M40.674,122.215l23.584-23.584c0,0.459,0.224,0.801,0.684,1.025
		c0.454,0.229,0.684,0.459,0.684,0.684c0.224,0.459,0.566,1.255,1.025,2.393c0.454,1.143,0.566,1.826,0.342,2.051L43.75,128.026
		c-2.051-1.138-3.076-2.847-3.076-5.127V122.215z M48.193,135.545l21.875-21.875c0.224,0,0.342-0.112,0.342-0.342l0.342-0.342
		c0.908,0,1.538,0.684,1.88,2.051s0.513,2.393,0.513,3.076v1.025L49.56,143.065c-0.684-1.138-1.084-2.104-1.196-2.905
		c-0.118-0.796-0.171-1.763-0.171-2.905V135.545z M53.662,148.534l22.559-21.875h0.342c1.138,0,1.88,0.571,2.222,1.709
		c0.342,1.143,0.513,2.051,0.513,2.734c0,1.367-0.229,2.393-0.684,3.076c-0.459,0.684-1.255,1.597-2.393,2.734
		c-0.684,0.684-1.998,1.938-3.931,3.76c-1.938,1.826-3.931,3.76-5.981,5.811s-3.989,3.989-5.811,5.811
		c-1.827,1.826-3.076,3.076-3.76,3.76c-2.051-1.592-3.076-3.643-3.076-6.152V148.534z M59.472,163.573
		c0-0.225,0.112-0.454,0.342-0.684l23.242-22.9c1.138,1.826,1.709,3.76,1.709,5.811v1.367l-23.584,23.242
		c-0.459-1.138-0.854-2.163-1.196-3.076c-0.342-0.908-0.513-1.934-0.513-3.076V163.573z M87.5,154.344
		c2.051,1.597,3.076,3.306,3.076,5.127v1.025l-23.584,23.242l-0.684-0.684l-0.684-0.684c-0.229-0.684-0.571-1.592-1.025-2.734
		c-0.459-1.138-0.571-1.709-0.342-1.709L87.5,154.344z M71.435,190.917l22.217-21.875l0.342-0.342l0.684,0.342h0.342l0.684,2.051
		c0.454,1.367,0.684,2.168,0.684,2.393v1.025v0.342l-23.242,23.583c-0.913-0.908-1.426-1.821-1.538-2.734
		c-0.118-0.908-0.171-1.933-0.171-3.076V190.917z M76.221,205.613l23.242-23.242c0.908,0.913,1.42,1.709,1.538,2.393
		c0.112,0.684,0.171,1.597,0.171,2.734c0,0.913-0.059,1.768-0.171,2.563c-0.118,0.801-0.63,1.538-1.538,2.222l-18.799,19.14h-2.051
		c-1.143,0-1.827-0.566-2.051-1.709c-0.229-1.138-0.342-2.275-0.342-3.418V205.613z M81.689,220.311l23.242-23.584
		c1.138,1.826,1.709,3.877,1.709,6.152v1.367L83.056,227.83c-0.459-1.138-0.801-2.163-1.025-3.076
		c-0.229-0.908-0.342-1.934-0.342-3.076V220.311z M86.133,234.666l23.242-23.242c0.908,1.143,1.42,2.109,1.538,2.905
		c0.112,0.801,0.171,1.655,0.171,2.563v2.051l-21.875,21.875h-0.684H87.5c0-0.225-0.171-0.908-0.513-2.051
		c-0.342-1.138-0.63-1.934-0.854-2.393v-0.684V234.666z M113.818,227.83c0.684,0,1.25,0.459,1.709,1.367
		c0,0.913,0.224,1.826,0.684,2.734c0.224,0.684,0.454,1.143,0.684,1.367l-23.242,23.242c-0.684,0-1.255-0.454-1.709-1.367
		l-1.367-4.102L113.818,227.83z M96.387,264.061l21.875-21.875h0.684c1.367,0,2.163,0.801,2.393,2.393
		c0.224,1.597,0.342,2.852,0.342,3.76c0,0.229-0.059,0.342-0.171,0.342c-0.118,0-0.171,0.117-0.171,0.342v0.684L99.463,271.58
		h-1.025c-1.143,0-1.768-0.737-1.88-2.222c-0.118-1.479-0.171-2.563-0.171-3.247V264.061z M100.488,280.125l23.926-23.584
		c0.454,1.143,0.854,2.109,1.196,2.905c0.342,0.801,0.513,1.768,0.513,2.905c0,0.229-0.059,0.4-0.171,0.513
		c-0.118,0.117-0.171,0.288-0.171,0.513c-0.229,0.229-0.342,0.459-0.342,0.684l-21.875,21.875l-0.684,0.342l-0.342-0.342
		c-0.459,0-0.801-0.566-1.025-1.709c-0.229-1.138-0.571-2.051-1.025-2.734v-0.684V280.125z M106.299,294.139
		c0-0.229,0.112-0.459,0.342-0.684l21.875-21.875h1.025c0.908,0,1.479,0.571,1.709,1.709c0.224,1.143,0.342,2.051,0.342,2.734v1.025
		l-23.584,23.926c-1.143-1.597-1.709-3.535-1.709-5.811V294.139z M112.451,308.152l23.584-23.584
		c0.684,0.913,1.079,1.768,1.196,2.563c0.112,0.801,0.171,1.768,0.171,2.905v2.051l-21.875,21.875h-1.025
		c-1.143,0-1.768-0.571-1.88-1.709c-0.118-1.143-0.171-2.051-0.171-2.734V308.152z M141.846,297.898l6.836,3.418l-20.166,20.166
		c-1.143,1.138-2.852,1.709-5.127,1.709c-2.28,0-3.989,0-5.127,0v-1.709L141.846,297.898z M169.873,298.924l-22.559,22.559
		c-0.913,0-1.827,0.112-2.734,0.342c-0.684,0.225-1.426,0.396-2.222,0.513c-0.801,0.112-1.426,0.283-1.88,0.513h-1.709h-1.367
		l21.875-21.875c0-0.459,0.967-0.801,2.905-1.025c1.934-0.229,3.472-0.571,4.614-1.025h1.367H169.873z M184.228,297.898
		c0.908,0,1.65,0.054,2.222,0.171c0.566,0.112,1.309,0.396,2.222,0.854l-21.875,22.559h-8.887l21.875-22.559
		C180.693,298.24,182.178,297.898,184.228,297.898z M192.773,129.051v0.684c-0.459,1.597-1.196,3.877-2.222,6.836
		c-1.025,2.964-1.655,4.443-1.88,4.443l-17.773,17.773c0.454-0.684,0.967-2.163,1.538-4.443c0.566-2.275,1.079-3.76,1.538-4.443
		c0.454-0.684,1.025-1.709,1.709-3.076s1.025-2.275,1.025-2.734c0.684-0.684,1.763-1.763,3.247-3.247
		c1.479-1.479,3.076-3.076,4.785-4.785s3.301-3.359,4.785-4.956c1.479-1.592,2.563-2.617,3.247-3.076V129.051z M173.633,168.016
		c0-0.225,0.112-0.454,0.342-0.684l10.254-9.912c-0.913,2.734-1.938,5.811-3.076,9.229c-1.143,3.418-3.076,6.152-5.811,8.203
		c-0.459-1.138-0.854-2.104-1.196-2.905c-0.342-0.796-0.513-1.88-0.513-3.247V168.016z M206.103,300.975l-20.508,20.508
		c-0.913,0.908-1.826,1.367-2.734,1.367c-0.913,0-1.938,0-3.076,0h-3.076l21.875-21.875H206.103z M206.103,96.239
		c-0.229,0.459-0.913,2.051-2.051,4.785c-1.143,2.734-1.938,4.443-2.393,5.127c-0.459,0.913-1.025,2.109-1.709,3.589
		c-0.684,1.484-1.143,2.222-1.367,2.222c-0.459,0.684-1.426,1.768-2.905,3.247c-1.484,1.484-3.076,3.076-4.785,4.785
		s-3.306,3.364-4.785,4.956c-1.484,1.597-2.563,2.622-3.247,3.076l4.443-12.988L206.103,96.239z M216.699,65.819v1.025
		c-1.143,2.28-2.451,5.186-3.931,8.716c-1.484,3.535-3.135,6.44-4.956,8.716l-11.963,11.963h-1.709
		c0.454-1.821,0.967-4.155,1.538-7.007c0.566-2.847,1.538-4.956,2.905-6.323l18.115-17.773V65.819z M225.244,37.792v1.025
		c-0.229,0.684-0.684,2.168-1.367,4.443c-0.684,2.28-1.255,3.647-1.709,4.102c-0.229,0.459-0.342,0.801-0.342,1.025
		c0,0.229-0.117,0.571-0.342,1.025c-0.229,0.459-0.459,0.801-0.684,1.025l-17.773,17.773v-1.367v-1.709
		c0.454-1.138,1.025-2.847,1.709-5.127c0.684-2.275,1.138-3.53,1.367-3.76l19.141-18.799V37.792z"/>
</g>
</svg>
